<mxfile host="app.diagrams.net" modified="2024-02-08T14:02:39.664Z" agent="Mozilla/5.0 (Windows NT 10.0; Win64; x64; rv:122.0) Gecko/20100101 Firefox/122.0" etag="6xMO9P9xnB9eT6bmpjyT" version="23.1.2" type="device">
  <diagram name="Page-1" id="2YBvvXClWsGukQMizWep">
    <mxGraphModel dx="2074" dy="792" grid="1" gridSize="10" guides="1" tooltips="1" connect="1" arrows="1" fold="1" page="1" pageScale="1" pageWidth="850" pageHeight="1100" math="0" shadow="0">
      <root>
        <mxCell id="0" />
        <mxCell id="1" parent="0" />
        <mxCell id="aM9ryv3xv72pqoxQDRHE-1" value="Utilisateur" style="shape=umlLifeline;perimeter=lifelinePerimeter;whiteSpace=wrap;html=1;container=0;dropTarget=0;collapsible=0;recursiveResize=0;outlineConnect=0;portConstraint=eastwest;newEdgeStyle={&quot;edgeStyle&quot;:&quot;elbowEdgeStyle&quot;,&quot;elbow&quot;:&quot;vertical&quot;,&quot;curved&quot;:0,&quot;rounded&quot;:0};" parent="1" vertex="1">
          <mxGeometry x="70" y="40" width="100" height="490" as="geometry" />
        </mxCell>
        <mxCell id="aM9ryv3xv72pqoxQDRHE-2" value="" style="html=1;points=[];perimeter=orthogonalPerimeter;outlineConnect=0;targetShapes=umlLifeline;portConstraint=eastwest;newEdgeStyle={&quot;edgeStyle&quot;:&quot;elbowEdgeStyle&quot;,&quot;elbow&quot;:&quot;vertical&quot;,&quot;curved&quot;:0,&quot;rounded&quot;:0};" parent="aM9ryv3xv72pqoxQDRHE-1" vertex="1">
          <mxGeometry x="45" y="70" width="10" height="10" as="geometry" />
        </mxCell>
        <mxCell id="aM9ryv3xv72pqoxQDRHE-3" value="Départ" style="html=1;verticalAlign=bottom;startArrow=oval;endArrow=block;startSize=8;edgeStyle=elbowEdgeStyle;elbow=vertical;curved=0;rounded=0;" parent="aM9ryv3xv72pqoxQDRHE-1" target="aM9ryv3xv72pqoxQDRHE-2" edge="1">
          <mxGeometry relative="1" as="geometry">
            <mxPoint x="-15" y="70" as="sourcePoint" />
          </mxGeometry>
        </mxCell>
        <mxCell id="z25Uq1P8lbXZ6_uPKflM-8" value="" style="html=1;points=[];perimeter=orthogonalPerimeter;outlineConnect=0;targetShapes=umlLifeline;portConstraint=eastwest;newEdgeStyle={&quot;edgeStyle&quot;:&quot;elbowEdgeStyle&quot;,&quot;elbow&quot;:&quot;vertical&quot;,&quot;curved&quot;:0,&quot;rounded&quot;:0};" parent="aM9ryv3xv72pqoxQDRHE-1" vertex="1">
          <mxGeometry x="45" y="270" width="10" height="25" as="geometry" />
        </mxCell>
        <mxCell id="z25Uq1P8lbXZ6_uPKflM-14" value="" style="html=1;points=[];perimeter=orthogonalPerimeter;outlineConnect=0;targetShapes=umlLifeline;portConstraint=eastwest;newEdgeStyle={&quot;edgeStyle&quot;:&quot;elbowEdgeStyle&quot;,&quot;elbow&quot;:&quot;vertical&quot;,&quot;curved&quot;:0,&quot;rounded&quot;:0};" parent="aM9ryv3xv72pqoxQDRHE-1" vertex="1">
          <mxGeometry x="45" y="435" width="10" height="11" as="geometry" />
        </mxCell>
        <mxCell id="z25Uq1P8lbXZ6_uPKflM-18" value="" style="html=1;points=[];perimeter=orthogonalPerimeter;outlineConnect=0;targetShapes=umlLifeline;portConstraint=eastwest;newEdgeStyle={&quot;edgeStyle&quot;:&quot;elbowEdgeStyle&quot;,&quot;elbow&quot;:&quot;vertical&quot;,&quot;curved&quot;:0,&quot;rounded&quot;:0};" parent="aM9ryv3xv72pqoxQDRHE-1" vertex="1">
          <mxGeometry x="45" y="476" width="10" height="10" as="geometry" />
        </mxCell>
        <mxCell id="oRkiIsHqqdRiKbcHqxus-1" value="" style="html=1;points=[];perimeter=orthogonalPerimeter;outlineConnect=0;targetShapes=umlLifeline;portConstraint=eastwest;newEdgeStyle={&quot;edgeStyle&quot;:&quot;elbowEdgeStyle&quot;,&quot;elbow&quot;:&quot;vertical&quot;,&quot;curved&quot;:0,&quot;rounded&quot;:0};" parent="aM9ryv3xv72pqoxQDRHE-1" vertex="1">
          <mxGeometry x="45" y="80" width="10" height="40" as="geometry" />
        </mxCell>
        <mxCell id="oRkiIsHqqdRiKbcHqxus-3" value="" style="html=1;points=[];perimeter=orthogonalPerimeter;outlineConnect=0;targetShapes=umlLifeline;portConstraint=eastwest;newEdgeStyle={&quot;edgeStyle&quot;:&quot;elbowEdgeStyle&quot;,&quot;elbow&quot;:&quot;vertical&quot;,&quot;curved&quot;:0,&quot;rounded&quot;:0};" parent="aM9ryv3xv72pqoxQDRHE-1" vertex="1">
          <mxGeometry x="45" y="195" width="10" height="20" as="geometry" />
        </mxCell>
        <mxCell id="hGvG4Hp4Aij3elvpk6Hw-1" value="" style="html=1;points=[];perimeter=orthogonalPerimeter;outlineConnect=0;targetShapes=umlLifeline;portConstraint=eastwest;newEdgeStyle={&quot;edgeStyle&quot;:&quot;elbowEdgeStyle&quot;,&quot;elbow&quot;:&quot;vertical&quot;,&quot;curved&quot;:0,&quot;rounded&quot;:0};" vertex="1" parent="aM9ryv3xv72pqoxQDRHE-1">
          <mxGeometry x="45" y="146" width="10" height="24" as="geometry" />
        </mxCell>
        <mxCell id="aM9ryv3xv72pqoxQDRHE-5" value="Application" style="shape=umlLifeline;perimeter=lifelinePerimeter;whiteSpace=wrap;html=1;container=0;dropTarget=0;collapsible=0;recursiveResize=0;outlineConnect=0;portConstraint=eastwest;newEdgeStyle={&quot;edgeStyle&quot;:&quot;elbowEdgeStyle&quot;,&quot;elbow&quot;:&quot;vertical&quot;,&quot;curved&quot;:0,&quot;rounded&quot;:0};" parent="1" vertex="1">
          <mxGeometry x="310" y="41" width="100" height="489" as="geometry" />
        </mxCell>
        <mxCell id="aM9ryv3xv72pqoxQDRHE-6" value="" style="html=1;points=[];perimeter=orthogonalPerimeter;outlineConnect=0;targetShapes=umlLifeline;portConstraint=eastwest;newEdgeStyle={&quot;edgeStyle&quot;:&quot;elbowEdgeStyle&quot;,&quot;elbow&quot;:&quot;vertical&quot;,&quot;curved&quot;:0,&quot;rounded&quot;:0};" parent="aM9ryv3xv72pqoxQDRHE-5" vertex="1">
          <mxGeometry x="45" y="80" width="10" height="40" as="geometry" />
        </mxCell>
        <mxCell id="z25Uq1P8lbXZ6_uPKflM-7" value="" style="html=1;points=[];perimeter=orthogonalPerimeter;outlineConnect=0;targetShapes=umlLifeline;portConstraint=eastwest;newEdgeStyle={&quot;edgeStyle&quot;:&quot;elbowEdgeStyle&quot;,&quot;elbow&quot;:&quot;vertical&quot;,&quot;curved&quot;:0,&quot;rounded&quot;:0};" parent="aM9ryv3xv72pqoxQDRHE-5" vertex="1">
          <mxGeometry x="45" y="195" width="10" height="20" as="geometry" />
        </mxCell>
        <mxCell id="z25Uq1P8lbXZ6_uPKflM-11" value="" style="html=1;points=[];perimeter=orthogonalPerimeter;outlineConnect=0;targetShapes=umlLifeline;portConstraint=eastwest;newEdgeStyle={&quot;edgeStyle&quot;:&quot;elbowEdgeStyle&quot;,&quot;elbow&quot;:&quot;vertical&quot;,&quot;curved&quot;:0,&quot;rounded&quot;:0};" parent="aM9ryv3xv72pqoxQDRHE-5" vertex="1">
          <mxGeometry x="45" y="311" width="10" height="39" as="geometry" />
        </mxCell>
        <mxCell id="z25Uq1P8lbXZ6_uPKflM-16" value="" style="html=1;points=[];perimeter=orthogonalPerimeter;outlineConnect=0;targetShapes=umlLifeline;portConstraint=eastwest;newEdgeStyle={&quot;edgeStyle&quot;:&quot;elbowEdgeStyle&quot;,&quot;elbow&quot;:&quot;vertical&quot;,&quot;curved&quot;:0,&quot;rounded&quot;:0};" parent="aM9ryv3xv72pqoxQDRHE-5" vertex="1">
          <mxGeometry x="45" y="441" width="10" height="40" as="geometry" />
        </mxCell>
        <mxCell id="eoItr24NMjDXoSU48hns-13" value="" style="html=1;points=[];perimeter=orthogonalPerimeter;outlineConnect=0;targetShapes=umlLifeline;portConstraint=eastwest;newEdgeStyle={&quot;edgeStyle&quot;:&quot;elbowEdgeStyle&quot;,&quot;elbow&quot;:&quot;vertical&quot;,&quot;curved&quot;:0,&quot;rounded&quot;:0};" parent="aM9ryv3xv72pqoxQDRHE-5" vertex="1">
          <mxGeometry x="45" y="265" width="10" height="20" as="geometry" />
        </mxCell>
        <mxCell id="hGvG4Hp4Aij3elvpk6Hw-3" value="" style="html=1;points=[];perimeter=orthogonalPerimeter;outlineConnect=0;targetShapes=umlLifeline;portConstraint=eastwest;newEdgeStyle={&quot;edgeStyle&quot;:&quot;elbowEdgeStyle&quot;,&quot;elbow&quot;:&quot;vertical&quot;,&quot;curved&quot;:0,&quot;rounded&quot;:0};" vertex="1" parent="aM9ryv3xv72pqoxQDRHE-5">
          <mxGeometry x="44" y="137" width="10" height="15" as="geometry" />
        </mxCell>
        <mxCell id="hGvG4Hp4Aij3elvpk6Hw-15" value="" style="html=1;points=[];perimeter=orthogonalPerimeter;outlineConnect=0;targetShapes=umlLifeline;portConstraint=eastwest;newEdgeStyle={&quot;edgeStyle&quot;:&quot;elbowEdgeStyle&quot;,&quot;elbow&quot;:&quot;vertical&quot;,&quot;curved&quot;:0,&quot;rounded&quot;:0};" vertex="1" parent="aM9ryv3xv72pqoxQDRHE-5">
          <mxGeometry x="45" y="374" width="10" height="11" as="geometry" />
        </mxCell>
        <mxCell id="aM9ryv3xv72pqoxQDRHE-7" value="Afficher les formations" style="html=1;verticalAlign=bottom;endArrow=block;edgeStyle=elbowEdgeStyle;elbow=vertical;curved=0;rounded=0;" parent="1" source="aM9ryv3xv72pqoxQDRHE-2" target="aM9ryv3xv72pqoxQDRHE-6" edge="1">
          <mxGeometry relative="1" as="geometry">
            <mxPoint x="195" y="130" as="sourcePoint" />
            <Array as="points">
              <mxPoint x="180" y="120" />
            </Array>
          </mxGeometry>
        </mxCell>
        <mxCell id="aM9ryv3xv72pqoxQDRHE-8" value="Afficher la formation demandée" style="html=1;verticalAlign=bottom;endArrow=open;endSize=8;edgeStyle=elbowEdgeStyle;elbow=vertical;curved=0;rounded=0;" parent="1" edge="1">
          <mxGeometry x="-0.1739" relative="1" as="geometry">
            <mxPoint x="125" y="325" as="targetPoint" />
            <Array as="points">
              <mxPoint x="190" y="325" />
            </Array>
            <mxPoint x="355" y="325" as="sourcePoint" />
            <mxPoint as="offset" />
          </mxGeometry>
        </mxCell>
        <mxCell id="aM9ryv3xv72pqoxQDRHE-9" value="Convertit données SQL en lisible" style="html=1;verticalAlign=bottom;endArrow=block;edgeStyle=elbowEdgeStyle;elbow=vertical;curved=0;rounded=0;" parent="1" source="aM9ryv3xv72pqoxQDRHE-6" edge="1">
          <mxGeometry relative="1" as="geometry">
            <mxPoint x="175" y="160" as="sourcePoint" />
            <Array as="points">
              <mxPoint x="190" y="160" />
            </Array>
            <mxPoint x="125" y="160" as="targetPoint" />
          </mxGeometry>
        </mxCell>
        <mxCell id="aM9ryv3xv72pqoxQDRHE-10" value="Voir une formation" style="html=1;verticalAlign=bottom;endArrow=open;endSize=8;edgeStyle=elbowEdgeStyle;elbow=vertical;curved=0;rounded=0;" parent="1" edge="1">
          <mxGeometry relative="1" as="geometry">
            <mxPoint x="359.5" y="235" as="targetPoint" />
            <Array as="points">
              <mxPoint x="200" y="235" />
              <mxPoint x="180" y="245" />
            </Array>
            <mxPoint x="115" y="235" as="sourcePoint" />
          </mxGeometry>
        </mxCell>
        <mxCell id="z25Uq1P8lbXZ6_uPKflM-15" value="Ajouter une formation au panier" style="html=1;verticalAlign=bottom;endArrow=open;endSize=8;edgeStyle=elbowEdgeStyle;elbow=vertical;curved=0;rounded=0;" parent="1" source="eoItr24NMjDXoSU48hns-18" edge="1">
          <mxGeometry x="0.0204" relative="1" as="geometry">
            <mxPoint x="361" y="352" as="targetPoint" />
            <Array as="points">
              <mxPoint x="201" y="352" />
              <mxPoint x="181" y="362" />
            </Array>
            <mxPoint x="116" y="352" as="sourcePoint" />
            <mxPoint as="offset" />
          </mxGeometry>
        </mxCell>
        <mxCell id="oRkiIsHqqdRiKbcHqxus-5" value="Commande" style="html=1;verticalAlign=bottom;endArrow=open;endSize=8;edgeStyle=elbowEdgeStyle;elbow=vertical;curved=0;rounded=0;" parent="1" edge="1">
          <mxGeometry relative="1" as="geometry">
            <mxPoint x="357" y="481" as="targetPoint" />
            <Array as="points">
              <mxPoint x="197" y="481" />
              <mxPoint x="177" y="491" />
            </Array>
            <mxPoint x="120" y="481" as="sourcePoint" />
          </mxGeometry>
        </mxCell>
        <mxCell id="oRkiIsHqqdRiKbcHqxus-6" value="Confirme" style="html=1;verticalAlign=bottom;endArrow=open;endSize=8;edgeStyle=elbowEdgeStyle;elbow=vertical;curved=0;rounded=0;" parent="1" edge="1">
          <mxGeometry x="-0.1739" relative="1" as="geometry">
            <mxPoint x="125" y="521" as="targetPoint" />
            <Array as="points">
              <mxPoint x="190" y="521" />
            </Array>
            <mxPoint x="355" y="521" as="sourcePoint" />
            <mxPoint as="offset" />
          </mxGeometry>
        </mxCell>
        <mxCell id="eoItr24NMjDXoSU48hns-1" value="Base de données" style="shape=umlLifeline;perimeter=lifelinePerimeter;whiteSpace=wrap;html=1;container=0;dropTarget=0;collapsible=0;recursiveResize=0;outlineConnect=0;portConstraint=eastwest;newEdgeStyle={&quot;edgeStyle&quot;:&quot;elbowEdgeStyle&quot;,&quot;elbow&quot;:&quot;vertical&quot;,&quot;curved&quot;:0,&quot;rounded&quot;:0};" parent="1" vertex="1">
          <mxGeometry x="544" y="41" width="100" height="489" as="geometry" />
        </mxCell>
        <mxCell id="eoItr24NMjDXoSU48hns-2" value="" style="html=1;points=[];perimeter=orthogonalPerimeter;outlineConnect=0;targetShapes=umlLifeline;portConstraint=eastwest;newEdgeStyle={&quot;edgeStyle&quot;:&quot;elbowEdgeStyle&quot;,&quot;elbow&quot;:&quot;vertical&quot;,&quot;curved&quot;:0,&quot;rounded&quot;:0};" parent="eoItr24NMjDXoSU48hns-1" vertex="1">
          <mxGeometry x="45" y="80" width="10" height="40" as="geometry" />
        </mxCell>
        <mxCell id="eoItr24NMjDXoSU48hns-3" value="" style="html=1;points=[];perimeter=orthogonalPerimeter;outlineConnect=0;targetShapes=umlLifeline;portConstraint=eastwest;newEdgeStyle={&quot;edgeStyle&quot;:&quot;elbowEdgeStyle&quot;,&quot;elbow&quot;:&quot;vertical&quot;,&quot;curved&quot;:0,&quot;rounded&quot;:0};" parent="eoItr24NMjDXoSU48hns-1" vertex="1">
          <mxGeometry x="45" y="234" width="10" height="31" as="geometry" />
        </mxCell>
        <mxCell id="eoItr24NMjDXoSU48hns-5" value="" style="html=1;points=[];perimeter=orthogonalPerimeter;outlineConnect=0;targetShapes=umlLifeline;portConstraint=eastwest;newEdgeStyle={&quot;edgeStyle&quot;:&quot;elbowEdgeStyle&quot;,&quot;elbow&quot;:&quot;vertical&quot;,&quot;curved&quot;:0,&quot;rounded&quot;:0};" parent="eoItr24NMjDXoSU48hns-1" vertex="1">
          <mxGeometry x="45" y="450" width="10" height="20" as="geometry" />
        </mxCell>
        <mxCell id="hGvG4Hp4Aij3elvpk6Hw-5" value="" style="html=1;points=[];perimeter=orthogonalPerimeter;outlineConnect=0;targetShapes=umlLifeline;portConstraint=eastwest;newEdgeStyle={&quot;edgeStyle&quot;:&quot;elbowEdgeStyle&quot;,&quot;elbow&quot;:&quot;vertical&quot;,&quot;curved&quot;:0,&quot;rounded&quot;:0};" vertex="1" parent="eoItr24NMjDXoSU48hns-1">
          <mxGeometry x="45" y="145" width="10" height="25" as="geometry" />
        </mxCell>
        <mxCell id="hGvG4Hp4Aij3elvpk6Hw-12" value="" style="html=1;points=[];perimeter=orthogonalPerimeter;outlineConnect=0;targetShapes=umlLifeline;portConstraint=eastwest;newEdgeStyle={&quot;edgeStyle&quot;:&quot;elbowEdgeStyle&quot;,&quot;elbow&quot;:&quot;vertical&quot;,&quot;curved&quot;:0,&quot;rounded&quot;:0};" vertex="1" parent="eoItr24NMjDXoSU48hns-1">
          <mxGeometry x="45" y="374" width="10" height="11" as="geometry" />
        </mxCell>
        <mxCell id="eoItr24NMjDXoSU48hns-6" value="Envoie la requête tout afficher " style="html=1;verticalAlign=bottom;endArrow=block;edgeStyle=elbowEdgeStyle;elbow=vertical;curved=0;rounded=0;" parent="1" edge="1">
          <mxGeometry relative="1" as="geometry">
            <mxPoint x="360" y="120" as="sourcePoint" />
            <Array as="points">
              <mxPoint x="415" y="120" />
            </Array>
            <mxPoint x="590" y="120" as="targetPoint" />
          </mxGeometry>
        </mxCell>
        <mxCell id="eoItr24NMjDXoSU48hns-7" value="Afficher les résultats de la recherche" style="html=1;verticalAlign=bottom;endArrow=block;edgeStyle=elbowEdgeStyle;elbow=vertical;curved=0;rounded=0;" parent="1" edge="1">
          <mxGeometry x="-0.087" relative="1" as="geometry">
            <mxPoint x="590" y="160" as="sourcePoint" />
            <Array as="points">
              <mxPoint x="425" y="160" />
            </Array>
            <mxPoint x="360" y="160" as="targetPoint" />
            <mxPoint as="offset" />
          </mxGeometry>
        </mxCell>
        <mxCell id="eoItr24NMjDXoSU48hns-9" value="Demander l&#39;ID de la formation" style="html=1;verticalAlign=bottom;endArrow=open;endSize=8;edgeStyle=elbowEdgeStyle;elbow=vertical;curved=0;rounded=0;" parent="1" edge="1">
          <mxGeometry x="-0.1739" relative="1" as="geometry">
            <mxPoint x="124" y="255" as="targetPoint" />
            <Array as="points">
              <mxPoint x="189" y="255" />
            </Array>
            <mxPoint x="354" y="255" as="sourcePoint" />
            <mxPoint as="offset" />
          </mxGeometry>
        </mxCell>
        <mxCell id="eoItr24NMjDXoSU48hns-10" value="Envoyer l&#39;ID de la formation demandée" style="html=1;verticalAlign=bottom;endArrow=open;endSize=8;edgeStyle=elbowEdgeStyle;elbow=vertical;curved=0;rounded=0;" parent="1" source="eoItr24NMjDXoSU48hns-14" edge="1">
          <mxGeometry relative="1" as="geometry">
            <mxPoint x="358" y="275" as="targetPoint" />
            <Array as="points">
              <mxPoint x="198" y="275" />
              <mxPoint x="178" y="285" />
            </Array>
            <mxPoint x="113" y="275" as="sourcePoint" />
          </mxGeometry>
        </mxCell>
        <mxCell id="eoItr24NMjDXoSU48hns-11" value="Envoyer la requête avec l&#39;ID" style="html=1;verticalAlign=bottom;endArrow=open;endSize=8;edgeStyle=elbowEdgeStyle;elbow=vertical;curved=0;rounded=0;" parent="1" source="eoItr24NMjDXoSU48hns-16" edge="1">
          <mxGeometry relative="1" as="geometry">
            <mxPoint x="589" y="275" as="targetPoint" />
            <Array as="points">
              <mxPoint x="429" y="275" />
              <mxPoint x="409" y="285" />
            </Array>
            <mxPoint x="344" y="275" as="sourcePoint" />
          </mxGeometry>
        </mxCell>
        <mxCell id="eoItr24NMjDXoSU48hns-12" value="Afficher les résultats de la recherche" style="html=1;verticalAlign=bottom;endArrow=block;edgeStyle=elbowEdgeStyle;elbow=vertical;curved=0;rounded=0;" parent="1" edge="1">
          <mxGeometry x="-0.087" relative="1" as="geometry">
            <mxPoint x="595" y="306" as="sourcePoint" />
            <Array as="points">
              <mxPoint x="430" y="306" />
            </Array>
            <mxPoint x="365" y="306" as="targetPoint" />
            <mxPoint as="offset" />
          </mxGeometry>
        </mxCell>
        <mxCell id="eoItr24NMjDXoSU48hns-14" value="" style="html=1;points=[];perimeter=orthogonalPerimeter;outlineConnect=0;targetShapes=umlLifeline;portConstraint=eastwest;newEdgeStyle={&quot;edgeStyle&quot;:&quot;elbowEdgeStyle&quot;,&quot;elbow&quot;:&quot;vertical&quot;,&quot;curved&quot;:0,&quot;rounded&quot;:0};" parent="1" vertex="1">
          <mxGeometry x="115" y="255" width="10" height="20" as="geometry" />
        </mxCell>
        <mxCell id="eoItr24NMjDXoSU48hns-16" value="" style="html=1;points=[];perimeter=orthogonalPerimeter;outlineConnect=0;targetShapes=umlLifeline;portConstraint=eastwest;newEdgeStyle={&quot;edgeStyle&quot;:&quot;elbowEdgeStyle&quot;,&quot;elbow&quot;:&quot;vertical&quot;,&quot;curved&quot;:0,&quot;rounded&quot;:0};" parent="1" vertex="1">
          <mxGeometry x="354" y="269" width="10" height="10" as="geometry" />
        </mxCell>
        <mxCell id="eoItr24NMjDXoSU48hns-18" value="" style="html=1;points=[];perimeter=orthogonalPerimeter;outlineConnect=0;targetShapes=umlLifeline;portConstraint=eastwest;newEdgeStyle={&quot;edgeStyle&quot;:&quot;elbowEdgeStyle&quot;,&quot;elbow&quot;:&quot;vertical&quot;,&quot;curved&quot;:0,&quot;rounded&quot;:0};" parent="1" vertex="1">
          <mxGeometry x="115" y="347" width="10" height="73" as="geometry" />
        </mxCell>
        <mxCell id="eoItr24NMjDXoSU48hns-20" value="Enregistre la commande" style="html=1;verticalAlign=bottom;endArrow=open;endSize=8;edgeStyle=elbowEdgeStyle;elbow=vertical;curved=0;rounded=0;" parent="1" edge="1">
          <mxGeometry relative="1" as="geometry">
            <mxPoint x="591" y="501" as="targetPoint" />
            <Array as="points">
              <mxPoint x="431" y="501" />
              <mxPoint x="411" y="511" />
            </Array>
            <mxPoint x="354" y="501" as="sourcePoint" />
          </mxGeometry>
        </mxCell>
        <mxCell id="hGvG4Hp4Aij3elvpk6Hw-2" value="Se connecter" style="html=1;verticalAlign=bottom;endArrow=block;edgeStyle=elbowEdgeStyle;elbow=vertical;curved=0;rounded=0;" edge="1" parent="1">
          <mxGeometry relative="1" as="geometry">
            <mxPoint x="125" y="186" as="sourcePoint" />
            <Array as="points">
              <mxPoint x="180" y="186" />
            </Array>
            <mxPoint x="355" y="186" as="targetPoint" />
          </mxGeometry>
        </mxCell>
        <mxCell id="hGvG4Hp4Aij3elvpk6Hw-4" value="Vérifier" style="html=1;verticalAlign=bottom;endArrow=block;edgeStyle=elbowEdgeStyle;elbow=vertical;curved=0;rounded=0;" edge="1" parent="1" target="hGvG4Hp4Aij3elvpk6Hw-5">
          <mxGeometry relative="1" as="geometry">
            <mxPoint x="365" y="186" as="sourcePoint" />
            <Array as="points">
              <mxPoint x="410" y="186" />
            </Array>
            <mxPoint x="585" y="186" as="targetPoint" />
          </mxGeometry>
        </mxCell>
        <mxCell id="hGvG4Hp4Aij3elvpk6Hw-6" value="Envoyer la réponse" style="html=1;verticalAlign=bottom;endArrow=block;edgeStyle=elbowEdgeStyle;elbow=vertical;curved=0;rounded=0;" edge="1" parent="1">
          <mxGeometry x="-0.087" relative="1" as="geometry">
            <mxPoint x="593" y="211" as="sourcePoint" />
            <Array as="points">
              <mxPoint x="428" y="211" />
            </Array>
            <mxPoint x="363" y="211" as="targetPoint" />
            <mxPoint as="offset" />
          </mxGeometry>
        </mxCell>
        <mxCell id="hGvG4Hp4Aij3elvpk6Hw-7" value="" style="html=1;points=[];perimeter=orthogonalPerimeter;outlineConnect=0;targetShapes=umlLifeline;portConstraint=eastwest;newEdgeStyle={&quot;edgeStyle&quot;:&quot;elbowEdgeStyle&quot;,&quot;elbow&quot;:&quot;vertical&quot;,&quot;curved&quot;:0,&quot;rounded&quot;:0};" vertex="1" parent="1">
          <mxGeometry x="355" y="204" width="10" height="15" as="geometry" />
        </mxCell>
        <mxCell id="hGvG4Hp4Aij3elvpk6Hw-9" value="Connecter ou envoyer erreur" style="html=1;verticalAlign=bottom;endArrow=block;edgeStyle=elbowEdgeStyle;elbow=vertical;curved=0;rounded=0;" edge="1" parent="1">
          <mxGeometry x="0.0696" relative="1" as="geometry">
            <mxPoint x="354" y="211" as="sourcePoint" />
            <Array as="points">
              <mxPoint x="189" y="211" />
            </Array>
            <mxPoint x="124" y="211" as="targetPoint" />
            <mxPoint as="offset" />
          </mxGeometry>
        </mxCell>
        <mxCell id="hGvG4Hp4Aij3elvpk6Hw-10" value="Supprimer une formation du panier" style="html=1;verticalAlign=bottom;endArrow=open;endSize=8;edgeStyle=elbowEdgeStyle;elbow=vertical;curved=0;rounded=0;" edge="1" parent="1">
          <mxGeometry x="0.0204" relative="1" as="geometry">
            <mxPoint x="361" y="371" as="targetPoint" />
            <Array as="points">
              <mxPoint x="201" y="371" />
              <mxPoint x="181" y="381" />
            </Array>
            <mxPoint x="125" y="371" as="sourcePoint" />
            <mxPoint as="offset" />
          </mxGeometry>
        </mxCell>
        <mxCell id="hGvG4Hp4Aij3elvpk6Hw-11" value="Si connecter action sur panier" style="html=1;verticalAlign=bottom;endArrow=open;endSize=8;edgeStyle=elbowEdgeStyle;elbow=vertical;curved=0;rounded=0;" edge="1" parent="1">
          <mxGeometry x="0.0204" relative="1" as="geometry">
            <mxPoint x="355" y="420" as="targetPoint" />
            <Array as="points">
              <mxPoint x="195" y="420" />
              <mxPoint x="175" y="430" />
            </Array>
            <mxPoint x="119" y="420" as="sourcePoint" />
            <mxPoint as="offset" />
          </mxGeometry>
        </mxCell>
        <mxCell id="hGvG4Hp4Aij3elvpk6Hw-14" value="Vérifier si connecter" style="html=1;verticalAlign=bottom;endArrow=block;edgeStyle=elbowEdgeStyle;elbow=vertical;curved=0;rounded=0;" edge="1" parent="1">
          <mxGeometry x="-0.087" relative="1" as="geometry">
            <mxPoint x="354" y="390" as="sourcePoint" />
            <Array as="points">
              <mxPoint x="189" y="390" />
            </Array>
            <mxPoint x="124" y="390" as="targetPoint" />
            <mxPoint as="offset" />
          </mxGeometry>
        </mxCell>
        <mxCell id="hGvG4Hp4Aij3elvpk6Hw-16" value="Sauvegarde le panier" style="html=1;verticalAlign=bottom;endArrow=open;endSize=8;edgeStyle=elbowEdgeStyle;elbow=vertical;curved=0;rounded=0;" edge="1" parent="1">
          <mxGeometry x="0.0204" relative="1" as="geometry">
            <mxPoint x="591" y="420" as="targetPoint" />
            <Array as="points">
              <mxPoint x="431" y="420" />
              <mxPoint x="411" y="430" />
            </Array>
            <mxPoint x="355" y="420" as="sourcePoint" />
            <mxPoint as="offset" />
          </mxGeometry>
        </mxCell>
      </root>
    </mxGraphModel>
  </diagram>
</mxfile>
